<?xml version="1.0" encoding="utf-8"?>
<!-- Generator: Adobe Illustrator 25.2.0, SVG Export Plug-In . SVG Version: 6.00 Build 0)  -->
<svg version="1.1" id="Layer_1" xmlns="http://www.w3.org/2000/svg" xmlns:xlink="http://www.w3.org/1999/xlink" x="0px" y="0px"
	 viewBox="0 0 2500 2031" style="enable-background:new 0 0 2500 2031;" xml:space="preserve">
<style type="text/css">
	.st0{fill:#5DA8DC;}
</style>
<path class="st0" d="M1670.2,1V0.6h117.2l42.8,8.6c28.5,5.6,54.4,12.8,77.7,21.9c23.3,9,45.8,19.5,67.6,31.5
	c21.8,12,41.5,24.3,59.3,36.7c17.6,12.3,33.3,25.4,47.3,39.2c13.8,14,35.4,17.6,64.7,10.8s60.8-16.1,94.6-28.2s67.2-25.5,100.3-40.6
	c33-15,53.2-24.6,60.4-28.6c7.1-4.2,10.8-6.5,11.3-6.8l0.4-0.7l2.3-1.1l2.3-1.1l2.3-1.1l2.3-1.1l0.5-0.7l0.7-0.5l0.7-0.5l0.4-0.7
	l2.3-0.7l2.3-0.5L2429,40l-0.7,3.4l-1.1,3.4l-1.1,3.4l-1.1,2.3l-1.1,2.3l-1.1,3.4c-0.8,2.3-1.5,5.3-2.3,9
	c-0.8,3.8-7.9,18.8-21.4,45.1s-30.4,52.9-50.7,80c-20.3,27-38.4,47.5-54.5,61.3c-16.2,14-27,23.7-32.2,29.3
	c-5.3,5.7-11.6,11-19.1,15.8l-11.3,7.4l-2.3,1.1l-2.3,1.1l-0.4,0.7l-0.7,0.5l-0.7,0.5l-0.5,0.7l-2.3,1.1l-2.3,1.1l-0.4,0.7l-0.7,0.5
	l-0.7,0.5l-0.5,0.7l-0.4,0.7l-0.7,0.5l-0.7,0.5l-0.5,0.7h11.3l63.1-13.5c42.1-9,82.2-19.9,120.5-32.7l60.8-20.3l6.8-2.3l3.4-1.1
	l2.3-1.1l2.3-1.1l2.3-1.1l2.3-1.1l4.5-0.7l4.5-0.5v4.5l-1.1,0.5l-1.1,0.7l-0.4,0.7l-0.7,0.5l-0.7,0.5l-0.5,0.7l-0.4,0.7l-0.7,0.5
	l-0.7,0.5l-0.5,0.7l-0.4,0.7l-0.7,0.5l-1.1,2.3l-1.1,2.3l-0.7,0.5c-0.3,0.5-9.8,13.2-28.6,38.3c-18.8,25.2-28.9,38-30.4,38.3
	c-1.5,0.5-3.6,2.7-6.3,6.8c-2.6,4.2-18.5,21-47.8,50.2c-29.3,29.3-58,55.3-86.1,78.2c-28.2,23-42.5,51.2-42.8,84.7
	c-0.5,33.3-2.2,71-5.2,113.1s-8.6,87.5-16.9,136.3c-8.3,48.8-21,104-38.3,165.6s-38.3,121.7-63.1,180.2
	c-24.8,58.6-50.7,111.1-77.7,157.7s-51.8,86-74.3,118.3s-45.4,62.7-68.7,91.2c-23.3,28.5-52.7,60.7-88.3,96.4
	c-35.7,35.6-55.3,55.1-58.6,58.6c-3.5,3.3-18.2,15.6-44.2,36.9c-25.8,21.5-53.6,43-83.4,64.4c-29.6,21.3-56.8,39.1-81.6,53.4
	c-24.8,14.3-54.7,30.6-89.7,48.9c-34.8,18.5-72.5,35.6-113.1,51.4s-83.4,30.4-128.4,43.9s-88.6,24-130.7,31.5s-89.7,13.9-143.1,19.1
	l-80,7.9v1.1H714.9v-1.1l-19.1-1.1c-12.8-0.8-23.3-1.5-31.5-2.3c-8.3-0.8-39.4-4.9-93.5-12.4s-96.5-15-127.3-22.5
	s-76.6-21.8-137.4-42.8s-112.9-42.3-156.1-63.8c-43.1-21.3-70.1-34.8-81.1-40.6c-10.8-5.6-23-12.5-36.5-20.7L12,1810.8l-0.4-0.7
	l-0.7-0.5l-0.7-0.5l-0.5-0.7l-2.3-1.1l-2.3-1.1l-0.4-0.7L4,1805l-0.7-0.5L3,1804l-0.4-0.7l-0.7-0.5H0.8v-4.5l2.3,0.5l2.3,0.7
	l10.1,1.1c6.8,0.8,25.2,1.9,55.2,3.4s62,1.5,95.7,0s68.3-4.9,103.6-10.1c35.3-5.3,77-14.3,125-27c48.1-12.8,92.2-27.9,132.5-45.5
	c40.1-17.7,68.6-30.9,85.6-39.7c16.8-8.6,42.5-24.5,77-47.8L742,1599l0.5-0.7l0.7-0.5l0.7-0.5l0.4-0.7l0.5-0.7l0.7-0.5l0.7-0.5
	l0.4-0.7l2.3-0.7l2.3-0.5l0.5-2.3l0.7-2.3l0.7-0.5l0.4-0.7l-18-1.1c-12-0.8-23.7-1.5-34.9-2.3c-11.3-0.8-28.9-4.1-52.9-10.1
	s-49.9-15-77.7-27s-54.8-26.3-81.1-42.8c-26.3-16.5-45.3-30.3-57-41.2c-11.6-10.8-26.6-26.1-45.1-46c-18.3-20-34.2-40.5-47.8-61.5
	c-13.5-21-26.4-45.3-38.7-72.8l-18.7-41l-1.1-3.4l-1.1-3.4l-0.7-2.3l-0.5-2.3l3.4,0.5l3.4,0.7l24.8,3.4c16.5,2.3,42.4,3,77.7,2.3
	c35.3-0.8,59.7-2.3,73.2-4.5c13.5-2.3,21.8-3.8,24.8-4.5l4.5-1.1l5.6-1.1l5.6-1.1l0.5-0.7l0.7-0.5l0.7-0.5l0.4-0.7l-4.5-1.1
	l-4.5-1.1l-4.5-1.1l-4.5-1.1l-4.5-1.1c-3-0.8-8.3-2.3-15.8-4.5c-7.5-2.3-27.8-10.5-60.8-24.8s-59.3-28.2-78.9-41.7
	c-19.6-13.6-38.2-28.4-55.9-44.4c-17.6-16.2-36.9-37.1-57.9-62.6s-39.8-55.2-56.3-89s-28.9-66.1-37.2-96.9
	c-8.2-30.6-13.7-61.9-16.2-93.5L97.9,712l2.3,0.5l2.3,0.7l2.3,1.1l2.3,1.1l2.3,1.1l2.3,1.1l34.9,15.8c23.3,10.5,52.2,19.5,86.7,27
	s55.2,11.6,62,12.4l10.1,1.1h20.3l-0.4-0.7l-0.7-0.5l-0.7-0.5l-0.5-0.7l-0.4-0.7l-0.7-0.5l-0.7-0.5l-0.5-0.7l-2.3-1.1l-2.3-1.1
	l-0.4-0.7l-0.7-0.5l-0.7-0.5l-0.5-0.7l-2.3-1.1l-2.3-1.1l-0.4-0.7c-0.5-0.3-6.9-5.1-19.4-14.4c-12.3-9.5-25.2-21.7-38.8-36.7
	c-13.5-15-27-30.8-40.6-47.3c-13.5-16.6-25.6-34.3-36-52.9c-10.5-18.8-21.6-42.7-33.3-71.6c-11.6-28.8-20.4-57.9-26.4-87.2
	c-6-29.3-9.4-58.2-10.1-86.7c-0.8-28.5,0-52.9,2.3-73.2c2.3-20.3,6.8-43.2,13.5-68.7s16.5-52.6,29.3-81.1L168.8,99l1.1-3.4l1.1-3.4
	l0.7-0.5l0.4-0.7l0.5-0.7l0.7-0.5l0.7,0.5l0.4,0.7l0.5,0.7l0.7,0.5l0.7,0.5l0.4,0.7l0.5,0.7l0.7,0.5l1.1,2.3l1.1,2.3l0.7,0.5
	l0.4,0.7l30.4,33.8c20.3,22.5,44.3,47.7,72.1,75.5s43.2,42.2,46.2,43.3c3,1.2,6.8,4.7,11.3,10.4c4.5,5.6,19.5,18.9,45.1,39.9
	c25.5,21,59,45.4,100.3,73.2c41.3,27.8,87.1,55.2,137.4,82.2c50.3,27,104.4,51.4,162.2,73.2c57.8,21.8,98.4,36,121.7,42.8
	s63.1,15.4,119.4,25.9s98.8,17.3,127.3,20.3s48.1,4.7,58.6,5.2l15.8,0.5l-0.4-3.4l-0.7-3.4L1223,592c-3-18.8-4.5-45.1-4.5-78.9
	s2.6-65,7.9-93.5s13.1-57.4,23.7-86.7c10.5-29.3,20.8-52.8,30.9-70.5c10.2-17.6,23.6-37.6,40.1-60.2c16.5-22.5,37.9-45.8,64.2-69.8
	c26.3-24,56.3-45.4,90.1-64.2s65-33,93.5-42.8s52.6-16.1,72.1-19.1C1660.4,3.2,1670.2,1.5,1670.2,1z"/>
</svg>
