<svg xmlns="http://www.w3.org/2000/svg" width="24" height="19.053" viewBox="0 0 24 19.053">
  <path id="iconmonstr-medium-1" d="M2.846,6.887a.928.928,0,0,0-.3-.784L.3,3.4V3H7.261l5.378,11.8L17.367,3H24v.4L22.084,5.24a.561.561,0,0,0-.213.538v13.5a.561.561,0,0,0,.213.537l1.871,1.837v.4H14.543v-.4l1.939-1.882c.19-.19.19-.246.19-.537V8.321L11.283,22.009h-.728L4.28,8.321V17.5a1.266,1.266,0,0,0,.347,1.052l2.521,3.058v.4H0v-.4l2.521-3.058A1.219,1.219,0,0,0,2.846,17.5V6.887Z" transform="translate(0 -3)" fill="#5fd9dd" fill-rule="evenodd"/>
</svg>
